<?xml version="1.0" standalone="no"?>
<!DOCTYPE svg PUBLIC "-//W3C//DTD SVG 20010904//EN"
 "http://www.w3.org/TR/2001/REC-SVG-20010904/DTD/svg10.dtd">
<svg version="1.0" xmlns="http://www.w3.org/2000/svg"
 width="90.000000pt" height="90.000000pt" viewBox="0 0 250.000000 250.000000"
 preserveAspectRatio="xMidYMid meet">

<g transform="translate(0.000000,250.000000) scale(0.100000,-0.100000)"
fill="#000000" stroke="none">
<path d="M58 2484 c-61 -33 -58 36 -58 -1234 0 -1018 2 -1165 15 -1190 33 -64
-40 -60 1235 -60 1018 0 1165 2 1190 15 63 33 60 -20 60 1032 l0 958 -248 248
-247 247 -960 0 c-830 -1 -964 -3 -987 -16z m2241 -482 c-297 -4 -299 -2 -299
298 l0 195 245 -245 245 -245 -191 -3z m-1208 326 c43 -18 77 -51 236 -232
102 -116 192 -221 200 -232 17 -27 2 -73 -24 -75 -38 -3 -50 4 -102 63 -30 33
-65 64 -79 69 -53 20 -122 -27 -122 -84 0 -13 6 -46 14 -73 8 -27 21 -75 30
-106 l17 -58 389 0 390 0 0 -350 0 -349 -56 -3 -56 -3 -88 -299 c-64 -216 -96
-310 -117 -340 -68 -96 -202 -133 -312 -85 -46 19 -75 48 -238 233 -102 116
-192 221 -200 232 -17 27 -2 73 24 75 38 3 50 -4 102 -63 30 -33 65 -64 79
-69 53 -20 122 27 122 84 0 13 -6 46 -14 73 -8 27 -21 75 -30 106 l-17 58
-389 0 -390 0 0 350 0 349 56 3 56 3 88 296 c47 163 97 313 109 333 65 104
205 145 322 94z"/>
<path d="M734 1768 c-4 -6 -17 -46 -29 -87 l-22 -76 -57 -3 c-54 -3 -56 -4
-56 -31 0 -63 64 -69 93 -8 18 35 21 37 69 37 l50 0 -8 -125 c-7 -135 -2 -155
41 -155 37 0 47 24 56 132 13 162 17 148 -42 148 l-52 0 7 76 c6 78 -1 104
-30 104 -7 0 -16 -5 -20 -12z"/>
<path d="M902 1718 c-7 -7 -12 -36 -12 -64 l0 -53 38 -3 37 -3 7 -140 c5 -77
12 -150 18 -162 12 -29 65 -32 79 -5 8 15 4 163 -9 310 0 1 -22 2 -50 2 l-50
0 0 39 c0 74 -27 110 -58 79z"/>
<path d="M1067 1713 c-9 -8 -9 -60 -1 -90 5 -19 13 -23 45 -23 38 0 39 1 33
28 -14 58 -33 92 -52 92 -10 0 -22 -3 -25 -7z"/>
<path d="M1161 1583 c0 -10 15 -67 33 -128 28 -97 35 -111 58 -119 34 -12 58
6 58 42 0 14 -12 70 -26 124 l-27 98 -48 0 c-40 0 -49 -3 -48 -17z"/>
<path d="M1431 1212 c-8 -15 -4 -163 9 -309 0 -2 22 -3 49 -3 l49 0 4 -55 c5
-64 20 -85 46 -69 12 8 18 27 20 67 l3 56 -38 3 -38 3 -7 140 c-5 77 -12 150
-18 163 -12 28 -65 31 -79 4z"/>
<path d="M1650 1165 c-7 -8 -16 -61 -21 -117 -13 -162 -17 -148 42 -148 l51 0
-3 -81 c-3 -69 -1 -83 13 -93 26 -16 36 0 62 90 l23 79 57 3 c54 3 56 4 56 31
0 63 -64 69 -93 9 -18 -36 -21 -38 -69 -38 l-50 0 8 125 c7 135 2 155 -41 155
-12 0 -28 -7 -35 -15z"/>
<path d="M1202 1158 c-18 -18 -15 -51 14 -160 l27 -98 48 0 c32 0 49 4 49 12
0 33 -64 235 -78 246 -20 15 -45 15 -60 0z"/>
<path d="M1356 873 c16 -67 33 -95 56 -91 26 3 33 31 23 84 -6 32 -8 34 -46
34 -38 0 -39 -1 -33 -27z"/>
</g>
</svg>
